<svg width="64" height="64" viewBox="0 0 64 64" fill="none" xmlns="http://www.w3.org/2000/svg">
<path fill-rule="evenodd" clip-rule="evenodd" d="M6.4 32V9.93281C6.4 8.16641 7.8336 6.4 9.6 6.4H54.4C56.1664 6.4 57.6 8.16641 57.6 9.93281V32H6.4ZM12.8 51.5328C11.0336 51.5328 9.6 50.0992 9.6 48.3328C9.6 46.5664 11.0336 45.1328 12.8 45.1328C14.5664 45.1328 16 46.5664 16 48.3328C16 50.0992 14.5664 51.5328 12.8 51.5328ZM51.2 51.5328C49.4336 51.5328 48 50.0992 48 48.3328C48 46.5664 49.4336 45.1328 51.2 45.1328C52.9664 45.1328 54.4 46.5664 54.4 48.3328C54.4 50.0992 52.9664 51.5328 51.2 51.5328ZM6.4 0C2.864 0 0 3.20001 0 6.73281V32.3328V51.5328C0 55.0688 2.864 57.9328 6.4 57.9328V61.1328C6.4 62.8992 7.8336 64 9.6 64H16C17.7664 64 19.2 62.8992 19.2 61.1328V57.6H44.8V61.1328C44.8 62.8992 46.2336 64 48 64H54.4C56.1664 64 57.6 62.8992 57.6 61.1328V57.9328C61.136 57.9328 64 55.0688 64 51.5328V32.3328V6.73281C64 3.20001 61.136 0 57.6 0H6.4Z" fill="#4CAF50"/>
</svg>
