<svg width="62" height="41" viewBox="0 0 62 41" fill="none" xmlns="http://www.w3.org/2000/svg">
<path fill-rule="evenodd" clip-rule="evenodd" d="M5 13.5C5 8.80558 8.80558 5 13.5 5H35.5C36.1419 5 36.7593 5.24694 37.2241 5.68966L42.938 11.1314C45.4532 13.5269 48.579 15.1843 51.9732 15.9221L53.5945 16.2746C55.5822 16.7067 57 18.4658 57 20.5V30H55.135C53.8775 27.6211 51.378 26 48.5 26C45.2345 26 42.4564 28.087 41.4268 31H20.5732C19.5436 28.087 16.7655 26 13.5 26C10.2627 26 7.5045 28.051 6.4539 30.9245C5.61477 30.6869 5 29.9152 5 29V13.5ZM20.5732 36C19.5436 38.913 16.7655 41 13.5 41C10.2256 41 7.44123 38.9016 6.41839 35.9762C2.82451 35.6806 0 32.6701 0 29V13.5C0 6.04416 6.04416 0 13.5 0H35.5C37.4258 0 39.2779 0.740811 40.6724 2.06897L46.3862 7.51069C48.2372 9.27356 50.5375 10.4932 53.0354 11.0363L54.6566 11.3887C58.9428 12.3205 62 16.1137 62 20.5V30.5C62 32.9853 59.9853 35 57.5 35H55.85C55.1551 38.4234 52.1284 41 48.5 41C45.2345 41 42.4564 38.913 41.4268 36H20.5732ZM16 33.5C16 34.8807 14.8807 36 13.5 36C12.1193 36 11 34.8807 11 33.5C11 32.1193 12.1193 31 13.5 31C14.8807 31 16 32.1193 16 33.5ZM48.5 36C49.8807 36 51 34.8807 51 33.5C51 32.1193 49.8807 31 48.5 31C47.1193 31 46 32.1193 46 33.5C46 34.8807 47.1193 36 48.5 36Z" fill="#4CAF50"/>
</svg>
