<svg width="46" height="46" viewBox="0 0 46 46" fill="none" xmlns="http://www.w3.org/2000/svg">
<path fill-rule="evenodd" clip-rule="evenodd" d="M28.3153 40.629C31.2271 35.9078 32.9199 30.6571 33.3661 25.3074H41.239C40.3259 32.5861 35.1647 38.555 28.3153 40.629ZM23.0115 40.263C19.6995 35.7811 17.7537 30.6087 17.2385 25.3074H28.7638C28.2555 30.6064 26.3166 35.7788 23.0115 40.263ZM4.7587 25.3074H12.6339C13.0847 30.6594 14.7867 35.9146 17.7077 40.6359C10.8468 38.5688 5.6741 32.5953 4.7587 25.3074ZM16.7624 5.70204C14.2048 10.3795 12.8202 15.5151 12.5741 20.7036H4.7587C5.6304 13.7564 10.3776 8.01546 16.7624 5.70204ZM22.9241 4.59252C22.9448 4.5649 22.9655 4.53726 22.9862 4.50964C23.0069 4.53726 23.0253 4.5649 23.046 4.59252C26.5765 9.40122 28.5039 15.0087 28.8236 20.7036H17.1741C17.4869 15.011 19.4051 9.40582 22.9241 4.59252ZM41.239 20.7036H33.4236C33.1706 15.5105 31.7768 10.3726 29.2077 5.69053C35.6086 7.99934 40.3673 13.7449 41.239 20.7036ZM24.9665 0.0853791C11.3666 -1.07018 0 9.65673 0 23.0055C0 35.5095 9.97048 45.6379 22.333 45.9901C35.3901 46.3676 46 35.8686 46 23.0055C46 11.1323 36.9564 1.10973 24.9665 0.0853791Z" fill="#4CAF50"/>
</svg>
