<svg width="23" height="49" viewBox="0 0 23 49" fill="none" xmlns="http://www.w3.org/2000/svg">
<path d="M19.1699 4.8832C19.3401 4.88219 19.5078 4.84129 19.6594 4.76379C19.8109 4.68628 19.9423 4.57433 20.0428 4.43691C20.2048 4.2066 20.2694 3.92172 20.2227 3.64405C20.1761 3.36637 20.0218 3.1183 19.7934 2.95364C17.3465 1.22853 14.4258 0.30249 11.4319 0.30249C8.43805 0.30249 5.51744 1.22853 3.07052 2.95364C2.86197 3.12474 2.72625 3.36872 2.69086 3.63616C2.65547 3.90359 2.72306 4.17447 2.87994 4.39393C3.03681 4.61339 3.27124 4.76501 3.53573 4.81808C3.80022 4.87115 4.075 4.8217 4.30439 4.67974C6.38831 3.21056 8.87564 2.4219 11.4254 2.4219C13.9751 2.4219 16.4625 3.21056 18.5464 4.67974C18.7288 4.80923 18.9462 4.88019 19.1699 4.8832Z" fill="#323537"/>
<path d="M11.4255 8.00779C10.117 7.99949 8.83941 8.40619 7.77644 9.16947C7.65265 9.24607 7.54592 9.34728 7.46284 9.46682C7.37976 9.58636 7.32212 9.72168 7.29348 9.86441C7.26484 10.0071 7.26582 10.1542 7.29635 10.2966C7.32688 10.4389 7.38632 10.5735 7.47097 10.6919C7.55563 10.8103 7.6637 10.9101 7.78849 10.985C7.91329 11.06 8.05214 11.1085 8.19646 11.1276C8.34077 11.1467 8.48747 11.136 8.62747 11.0961C8.76746 11.0561 8.89777 10.9879 9.01031 10.8956C9.71415 10.3911 10.5596 10.1223 11.4255 10.1277C12.2927 10.1275 13.1387 10.3958 13.8473 10.8956C14.0273 11.0192 14.2394 11.0876 14.4577 11.0925C14.6848 11.0992 14.9081 11.033 15.0949 10.9035C15.2816 10.7741 15.422 10.5882 15.4954 10.3731C15.5688 10.1581 15.5714 9.92517 15.5027 9.70855C15.4341 9.49194 15.2979 9.30301 15.114 9.16947C14.04 8.39863 12.7475 7.99157 11.4255 8.00779Z" fill="#323537"/>
<path d="M11.4257 29.9099C11.7089 29.9081 11.98 29.7949 12.1803 29.5946C12.3805 29.3944 12.4938 29.1233 12.4955 28.8401V23.3664C12.507 23.2193 12.488 23.0714 12.4397 22.932C12.3913 22.7926 12.3146 22.6648 12.2145 22.5564C12.1143 22.4481 11.9928 22.3617 11.8577 22.3025C11.7225 22.2434 11.5765 22.2129 11.429 22.2129C11.2814 22.2129 11.1355 22.2434 11.0003 22.3025C10.8651 22.3617 10.7436 22.4481 10.6435 22.5564C10.5433 22.6648 10.4666 22.7926 10.4183 22.932C10.3699 23.0714 10.3509 23.2193 10.3625 23.3664V28.8401C10.3625 29.1227 10.4743 29.3938 10.6735 29.5942C10.8727 29.7946 11.1431 29.9081 11.4257 29.9099Z" fill="#4F5B66"/>
<path d="M0.00326458 37.0371C-0.0329174 38.5946 0.237703 40.1438 0.79921 41.5935C1.36072 43.0433 2.20178 44.3642 3.27293 45.4788C4.34409 46.5934 5.62372 47.4791 7.03658 48.0838C8.44945 48.6885 9.96702 49 11.5001 49C13.0331 49 14.5507 48.6885 15.9635 48.0838C17.3764 47.4791 18.656 46.5934 19.7272 45.4788C20.7983 44.3642 21.6394 43.0433 22.2009 41.5935C22.7624 40.1438 23.033 38.5946 22.9969 37.0371V26.4113C22.926 23.3603 21.6836 20.4585 19.5353 18.3261C17.3869 16.1938 14.503 15 11.5001 15C8.49707 15 5.61321 16.1938 3.46487 18.3261C1.31652 20.4585 0.0741392 23.3603 0.00326458 26.4113V37.0371ZM2.07262 26.4113C2.07262 23.8711 3.06553 21.435 4.83292 19.6389C6.6003 17.8428 8.9974 16.8337 11.4969 16.8337C13.9963 16.8337 16.3934 17.8428 18.1608 19.6389C19.9282 21.435 20.9211 23.8711 20.9211 26.4113V37.0371C20.9211 39.5772 19.9282 42.0133 18.1608 43.8094C16.3934 45.6056 13.9963 46.6146 11.4969 46.6146C8.9974 46.6146 6.6003 45.6056 4.83292 43.8094C3.06553 42.0133 2.07262 39.5772 2.07262 37.0371V26.4113Z" fill="#323537"/>
</svg>
