<svg width="64" height="64" viewBox="0 0 64 64" fill="none" xmlns="http://www.w3.org/2000/svg">
<g clip-path="url(#clip0)">
<path fill-rule="evenodd" clip-rule="evenodd" d="M52.9995 55.0066H11.0015C8.74101 55.0066 7.07182 52.8824 7.92439 50.9289C11.8802 41.8957 21.1735 36.7209 31.9988 36.7209C42.8274 36.7209 52.1208 41.8957 56.0766 50.9289C56.9291 52.8824 55.2599 55.0066 52.9995 55.0066ZM18.9326 18.4352C18.9326 11.7121 24.7961 6.2447 31.9988 6.2447C39.2048 6.2447 45.065 11.7121 45.065 18.4352C45.065 25.1582 39.2048 30.6257 31.9988 30.6257C24.7961 30.6257 18.9326 25.1582 18.9326 18.4352ZM63.8575 53.8973C61.4827 43.6603 54.0546 36.1053 44.2778 32.6767C49.4585 28.7849 52.4801 22.4916 51.3695 15.6009C50.0824 7.60699 42.9548 1.21004 34.3508 0.277466C22.4736 -1.01168 12.3996 7.61309 12.3996 18.4352C12.3996 24.1952 15.261 29.3274 19.7231 32.6767C9.9431 36.1053 2.51825 43.6603 0.140206 53.8973C-0.722162 57.6184 2.4921 61.1018 6.57202 61.1018H57.4257C61.5088 61.1018 64.7231 57.6184 63.8575 53.8973Z" fill="#4CAF50"/>
</g>
<defs>
<clipPath id="clip0">
<rect width="64" height="64" fill="white"/>
</clipPath>
</defs>
</svg>
