<svg width="64" height="64" viewBox="0 0 64 64" fill="none" xmlns="http://www.w3.org/2000/svg">
<path fill-rule="evenodd" clip-rule="evenodd" d="M36.0322 7.32372C35.776 7.58352 35.6596 7.95792 35.7196 8.32512L36.1066 10.6747C36.2272 11.4061 35.6692 12.0001 35.0362 12.0001C34.8694 12.0001 34.6972 11.9587 34.5304 11.8675L32.5054 10.7581C32.347 10.6717 32.1736 10.6285 31.9996 10.6285C31.8262 10.6285 31.6528 10.6717 31.4944 10.7581L29.4694 11.8675C29.3026 11.9587 29.1304 12.0001 28.9636 12.0001C28.3306 12.0001 27.7726 11.4061 27.8932 10.6747L28.2802 8.32512C28.3402 7.95792 28.2238 7.58352 27.9676 7.32372L26.329 5.65992C25.6846 5.00532 26.0404 3.86472 26.9308 3.72972L29.1952 3.38712C29.5492 3.33372 29.8552 3.10212 30.013 2.76792L31.0258 0.630719C31.225 0.210119 31.6126 0.00012207 31.9996 0.00012207C32.3872 0.00012207 32.7748 0.210119 32.974 0.630719L33.9868 2.76792C34.1446 3.10212 34.4506 3.33372 34.8046 3.38712L37.069 3.72972C37.9594 3.86472 38.3152 5.00532 37.6708 5.65992L36.0322 7.32372Z" fill="#4CAF50"/>
<path fill-rule="evenodd" clip-rule="evenodd" d="M55.0322 15.3237C54.776 15.5835 54.6596 15.9579 54.7196 16.3251L55.1066 18.6747C55.2272 19.4061 54.6692 20.0001 54.0362 20.0001C53.8694 20.0001 53.6972 19.9587 53.5304 19.8675L51.5054 18.7581C51.347 18.6717 51.1736 18.6285 50.9996 18.6285C50.8262 18.6285 50.6528 18.6717 50.4944 18.7581L48.4694 19.8675C48.3026 19.9587 48.1304 20.0001 47.9636 20.0001C47.3306 20.0001 46.7726 19.4061 46.8932 18.6747L47.2802 16.3251C47.3402 15.9579 47.2238 15.5835 46.9676 15.3237L45.329 13.6599C44.6846 13.0053 45.0404 11.8647 45.9308 11.7297L48.1952 11.3871C48.5492 11.3337 48.8552 11.1021 49.013 10.7679L50.0258 8.63072C50.225 8.21012 50.6126 8.00012 50.9996 8.00012C51.3872 8.00012 51.7748 8.21012 51.974 8.63072L52.9868 10.7679C53.1446 11.1021 53.4506 11.3337 53.8046 11.3871L56.069 11.7297C56.9594 11.8647 57.3152 13.0053 56.6708 13.6599L55.0322 15.3237Z" fill="#4CAF50"/>
<path fill-rule="evenodd" clip-rule="evenodd" d="M62.0322 33.3237C61.776 33.5835 61.6596 33.9579 61.7196 34.3251L62.1066 36.6747C62.2272 37.4061 61.6692 38.0001 61.0362 38.0001C60.8694 38.0001 60.6972 37.9587 60.5304 37.8675L58.5054 36.7581C58.347 36.6717 58.1736 36.6285 57.9996 36.6285C57.8262 36.6285 57.6528 36.6717 57.4944 36.7581L55.4694 37.8675C55.3026 37.9587 55.1304 38.0001 54.9636 38.0001C54.3306 38.0001 53.7726 37.4061 53.8932 36.6747L54.2802 34.3251C54.3402 33.9579 54.2238 33.5835 53.9676 33.3237L52.329 31.6599C51.6846 31.0053 52.0404 29.8647 52.9308 29.7297L55.1952 29.3871C55.5492 29.3337 55.8552 29.1021 56.013 28.7679L57.0258 26.6307C57.225 26.2101 57.6126 26.0001 57.9996 26.0001C58.3872 26.0001 58.7748 26.2101 58.974 26.6307L59.9868 28.7679C60.1446 29.1021 60.4506 29.3337 60.8046 29.3871L63.069 29.7297C63.9594 29.8647 64.3152 31.0053 63.6708 31.6599L62.0322 33.3237Z" fill="#4CAF50"/>
<path fill-rule="evenodd" clip-rule="evenodd" d="M54.0322 51.3237C53.776 51.5835 53.6596 51.9579 53.7196 52.3251L54.1066 54.6747C54.2272 55.4061 53.6692 56.0001 53.0362 56.0001C52.8694 56.0001 52.6972 55.9587 52.5304 55.8675L50.5054 54.7581C50.347 54.6717 50.1736 54.6285 49.9996 54.6285C49.8262 54.6285 49.6528 54.6717 49.4944 54.7581L47.4694 55.8675C47.3026 55.9587 47.1304 56.0001 46.9636 56.0001C46.3306 56.0001 45.7726 55.4061 45.8932 54.6747L46.2802 52.3251C46.3402 51.9579 46.2238 51.5835 45.9676 51.3237L44.329 49.6599C43.6846 49.0053 44.0404 47.8647 44.9308 47.7297L47.1952 47.3871C47.5492 47.3337 47.8552 47.1021 48.013 46.7679L49.0258 44.6307C49.225 44.2101 49.6126 44.0001 49.9996 44.0001C50.3872 44.0001 50.7748 44.2101 50.974 44.6307L51.9868 46.7679C52.1446 47.1021 52.4506 47.3337 52.8046 47.3871L55.069 47.7297C55.9594 47.8647 56.3152 49.0053 55.6708 49.6599L54.0322 51.3237Z" fill="#4CAF50"/>
<path fill-rule="evenodd" clip-rule="evenodd" d="M36.0322 59.3237C35.776 59.5835 35.6596 59.9579 35.7196 60.3251L36.1066 62.6747C36.2272 63.4061 35.6692 64.0001 35.0362 64.0001C34.8694 64.0001 34.6972 63.9587 34.5304 63.8675L32.5054 62.7581C32.347 62.6717 32.1736 62.6285 31.9996 62.6285C31.8262 62.6285 31.6528 62.6717 31.4944 62.7581L29.4694 63.8675C29.3026 63.9587 29.1304 64.0001 28.9636 64.0001C28.3306 64.0001 27.7726 63.4061 27.8932 62.6747L28.2802 60.3251C28.3402 59.9579 28.2238 59.5835 27.9676 59.3237L26.329 57.6599C25.6846 57.0053 26.0404 55.8647 26.9308 55.7297L29.1952 55.3871C29.5492 55.3337 29.8552 55.1021 30.013 54.7679L31.0258 52.6307C31.225 52.2101 31.6126 52.0001 31.9996 52.0001C32.3872 52.0001 32.7748 52.2101 32.974 52.6307L33.9868 54.7679C34.1446 55.1021 34.4506 55.3337 34.8046 55.3871L37.069 55.7297C37.9594 55.8647 38.3152 57.0053 37.6708 57.6599L36.0322 59.3237Z" fill="#4CAF50"/>
<path fill-rule="evenodd" clip-rule="evenodd" d="M17.0322 52.3237C16.776 52.5835 16.6596 52.9579 16.7196 53.3251L17.1066 55.6747C17.2272 56.4061 16.6692 57.0001 16.0362 57.0001C15.8694 57.0001 15.6972 56.9587 15.5304 56.8675L13.5054 55.7581C13.347 55.6717 13.1736 55.6285 12.9996 55.6285C12.8262 55.6285 12.6528 55.6717 12.4944 55.7581L10.4694 56.8675C10.3026 56.9587 10.1304 57.0001 9.96361 57.0001C9.33061 57.0001 8.77261 56.4061 8.89321 55.6747L9.28021 53.3251C9.34021 52.9579 9.22381 52.5835 8.96761 52.3237L7.32901 50.6599C6.68461 50.0053 7.04041 48.8647 7.93081 48.7297L10.1952 48.3871C10.5492 48.3337 10.8552 48.1021 11.013 47.7679L12.0258 45.6307C12.225 45.2101 12.6126 45.0001 12.9996 45.0001C13.3872 45.0001 13.7748 45.2101 13.974 45.6307L14.9868 47.7679C15.1446 48.1021 15.4506 48.3337 15.8046 48.3871L18.069 48.7297C18.9594 48.8647 19.3152 50.0053 18.6708 50.6599L17.0322 52.3237Z" fill="#4CAF50"/>
<path fill-rule="evenodd" clip-rule="evenodd" d="M10.0322 33.3237C9.77601 33.5835 9.65961 33.9579 9.71961 34.3251L10.1066 36.6747C10.2272 37.4061 9.66921 38.0001 9.03621 38.0001C8.86941 38.0001 8.69721 37.9587 8.53041 37.8675L6.50541 36.7581C6.34701 36.6717 6.17361 36.6285 5.99961 36.6285C5.82621 36.6285 5.65281 36.6717 5.49441 36.7581L3.46941 37.8675C3.30261 37.9587 3.13041 38.0001 2.96361 38.0001C2.33061 38.0001 1.77261 37.4061 1.89321 36.6747L2.28021 34.3251C2.34021 33.9579 2.22381 33.5835 1.96761 33.3237L0.329011 31.6599C-0.315389 31.0053 0.0404099 29.8647 0.93081 29.7297L3.19521 29.3871C3.54921 29.3337 3.85521 29.1021 4.01301 28.7679L5.02581 26.6307C5.22501 26.2101 5.61261 26.0001 5.99961 26.0001C6.38721 26.0001 6.77481 26.2101 6.97401 26.6307L7.98681 28.7679C8.14461 29.1021 8.45061 29.3337 8.80461 29.3871L11.069 29.7297C11.9594 29.8647 12.3152 31.0053 11.6708 31.6599L10.0322 33.3237Z" fill="#4CAF50"/>
<path fill-rule="evenodd" clip-rule="evenodd" d="M18.0322 14.3237C17.776 14.5835 17.6596 14.9579 17.7196 15.3251L18.1066 17.6747C18.2272 18.4061 17.6692 19.0001 17.0362 19.0001C16.8694 19.0001 16.6972 18.9587 16.5304 18.8675L14.5054 17.7581C14.347 17.6717 14.1736 17.6285 13.9996 17.6285C13.8262 17.6285 13.6528 17.6717 13.4944 17.7581L11.4694 18.8675C11.3026 18.9587 11.1304 19.0001 10.9636 19.0001C10.3306 19.0001 9.77261 18.4061 9.89321 17.6747L10.2802 15.3251C10.3402 14.9579 10.2238 14.5835 9.96761 14.3237L8.32901 12.6599C7.68461 12.0053 8.04041 10.8647 8.93081 10.7297L11.1952 10.3871C11.5492 10.3337 11.8552 10.1021 12.013 9.76792L13.0258 7.63072C13.225 7.21012 13.6126 7.00012 13.9996 7.00012C14.3872 7.00012 14.7748 7.21012 14.974 7.63072L15.9868 9.76792C16.1446 10.1021 16.4506 10.3337 16.8046 10.3871L19.069 10.7297C19.9594 10.8647 20.3152 12.0053 19.6708 12.6599L18.0322 14.3237Z" fill="#4CAF50"/>
</svg>
