<svg width="64" height="44" viewBox="0 0 64 44" fill="none" xmlns="http://www.w3.org/2000/svg">
<path fill-rule="evenodd" clip-rule="evenodd" d="M31.0656 21.7863C31.0656 16.5786 35.3632 12.3577 40.6656 12.3577C45.968 12.3577 50.2656 16.5786 50.2656 21.7863C50.2656 26.994 45.968 31.2149 40.6656 31.2149C35.3632 31.2149 31.0656 26.994 31.0656 21.7863ZM22.0288 6.28571H41.2288C50.0512 6.28571 57.2288 13.3351 57.2288 22C57.2288 30.6649 50.0512 37.7143 41.2288 37.7143H22.0288C13.2064 37.7143 6.0288 30.6649 6.0288 22C6.0288 13.3351 13.2064 6.28571 22.0288 6.28571ZM64 22C64 9.84971 53.9712 0 41.6 0H22.4C10.0288 0 0 9.84971 0 22C0 34.1503 10.0288 44 22.4 44H41.6C53.9712 44 64 34.1503 64 22Z" fill="#4CAF50"/>
</svg>
